<mxfile host="www.draw.io" modified="2020-01-18T08:53:34.353Z" agent="Mozilla/5.0 (Windows NT 10.0; Win64; x64) AppleWebKit/537.36 (KHTML, like Gecko) Chrome/79.0.3945.131 Safari/537.36" etag="3dTDCOCCGF1r23mtdJMQ" version="12.5.5" type="github">
  <diagram id="cAFr6N95PUNnEoPca_gN" name="第 1 页">
    <mxGraphModel dx="1244" dy="568" grid="1" gridSize="10" guides="1" tooltips="1" connect="1" arrows="1" fold="1" page="1" pageScale="1" pageWidth="827" pageHeight="1169" math="0" shadow="0">
      <root>
        <mxCell id="0"/>
        <mxCell id="1" parent="0"/>
        <mxCell id="3ejiPTtICGJsVeUH_O7t-10" style="edgeStyle=orthogonalEdgeStyle;rounded=0;orthogonalLoop=1;jettySize=auto;html=1;exitX=0.5;exitY=1;exitDx=0;exitDy=0;entryX=0.5;entryY=0;entryDx=0;entryDy=0;" parent="1" source="3ejiPTtICGJsVeUH_O7t-1" target="3ejiPTtICGJsVeUH_O7t-2" edge="1">
          <mxGeometry relative="1" as="geometry"/>
        </mxCell>
        <mxCell id="3ejiPTtICGJsVeUH_O7t-1" value="Request" style="shape=parallelogram;html=1;strokeWidth=2;perimeter=parallelogramPerimeter;whiteSpace=wrap;rounded=1;arcSize=12;size=0.23;" parent="1" vertex="1">
          <mxGeometry x="300" y="30" width="80" height="40" as="geometry"/>
        </mxCell>
        <mxCell id="3ejiPTtICGJsVeUH_O7t-11" style="edgeStyle=orthogonalEdgeStyle;rounded=0;orthogonalLoop=1;jettySize=auto;html=1;exitX=0.5;exitY=1;exitDx=0;exitDy=0;entryX=0.5;entryY=0;entryDx=0;entryDy=0;entryPerimeter=0;" parent="1" source="3ejiPTtICGJsVeUH_O7t-2" target="3ejiPTtICGJsVeUH_O7t-3" edge="1">
          <mxGeometry relative="1" as="geometry"/>
        </mxCell>
        <mxCell id="3ejiPTtICGJsVeUH_O7t-2" value="CommonAction" style="rounded=1;whiteSpace=wrap;html=1;absoluteArcSize=1;arcSize=14;strokeWidth=2;" parent="1" vertex="1">
          <mxGeometry x="285" y="110" width="110" height="40" as="geometry"/>
        </mxCell>
        <mxCell id="3ejiPTtICGJsVeUH_O7t-6" style="edgeStyle=orthogonalEdgeStyle;rounded=0;orthogonalLoop=1;jettySize=auto;html=1;exitX=0;exitY=0.5;exitDx=0;exitDy=0;exitPerimeter=0;entryX=0.5;entryY=0;entryDx=0;entryDy=0;" parent="1" source="3ejiPTtICGJsVeUH_O7t-3" target="3ejiPTtICGJsVeUH_O7t-4" edge="1">
          <mxGeometry relative="1" as="geometry"/>
        </mxCell>
        <mxCell id="3ejiPTtICGJsVeUH_O7t-7" style="edgeStyle=orthogonalEdgeStyle;rounded=0;orthogonalLoop=1;jettySize=auto;html=1;exitX=1;exitY=0.5;exitDx=0;exitDy=0;exitPerimeter=0;entryX=0.5;entryY=0;entryDx=0;entryDy=0;" parent="1" source="3ejiPTtICGJsVeUH_O7t-3" target="3ejiPTtICGJsVeUH_O7t-5" edge="1">
          <mxGeometry relative="1" as="geometry"/>
        </mxCell>
        <mxCell id="3ejiPTtICGJsVeUH_O7t-3" value="fileSize&amp;gt;threshold？" style="strokeWidth=2;html=1;shape=mxgraph.flowchart.decision;whiteSpace=wrap;" parent="1" vertex="1">
          <mxGeometry x="265" y="180" width="150" height="50" as="geometry"/>
        </mxCell>
        <mxCell id="NXjKKMXUYwiKTXubAeDR-5" style="edgeStyle=orthogonalEdgeStyle;rounded=0;orthogonalLoop=1;jettySize=auto;html=1;exitX=0.5;exitY=1;exitDx=0;exitDy=0;entryX=0.5;entryY=0;entryDx=0;entryDy=0;" edge="1" parent="1" source="3ejiPTtICGJsVeUH_O7t-4" target="3ejiPTtICGJsVeUH_O7t-15">
          <mxGeometry relative="1" as="geometry"/>
        </mxCell>
        <mxCell id="3ejiPTtICGJsVeUH_O7t-4" value="SingleThreadImportAction" style="rounded=1;whiteSpace=wrap;html=1;absoluteArcSize=1;arcSize=14;strokeWidth=2;" parent="1" vertex="1">
          <mxGeometry x="80" y="280" width="170" height="40" as="geometry"/>
        </mxCell>
        <mxCell id="NXjKKMXUYwiKTXubAeDR-7" style="edgeStyle=orthogonalEdgeStyle;rounded=0;orthogonalLoop=1;jettySize=auto;html=1;exitX=0.5;exitY=1;exitDx=0;exitDy=0;entryX=0.5;entryY=0;entryDx=0;entryDy=0;" edge="1" parent="1" source="3ejiPTtICGJsVeUH_O7t-5" target="3ejiPTtICGJsVeUH_O7t-16">
          <mxGeometry relative="1" as="geometry"/>
        </mxCell>
        <mxCell id="3ejiPTtICGJsVeUH_O7t-5" value="MultiThreadImportAction" style="rounded=1;whiteSpace=wrap;html=1;absoluteArcSize=1;arcSize=14;strokeWidth=2;" parent="1" vertex="1">
          <mxGeometry x="415" y="280" width="170" height="40" as="geometry"/>
        </mxCell>
        <mxCell id="3ejiPTtICGJsVeUH_O7t-8" value="no" style="text;html=1;strokeColor=none;fillColor=none;align=center;verticalAlign=middle;whiteSpace=wrap;rounded=0;" parent="1" vertex="1">
          <mxGeometry x="180" y="180" width="40" height="20" as="geometry"/>
        </mxCell>
        <mxCell id="3ejiPTtICGJsVeUH_O7t-9" value="yes" style="text;html=1;strokeColor=none;fillColor=none;align=center;verticalAlign=middle;whiteSpace=wrap;rounded=0;" parent="1" vertex="1">
          <mxGeometry x="450" y="180" width="40" height="20" as="geometry"/>
        </mxCell>
        <mxCell id="3ejiPTtICGJsVeUH_O7t-12" value="redirect" style="text;html=1;strokeColor=none;fillColor=none;align=center;verticalAlign=middle;whiteSpace=wrap;rounded=0;" parent="1" vertex="1">
          <mxGeometry x="180" y="240" width="40" height="20" as="geometry"/>
        </mxCell>
        <mxCell id="3ejiPTtICGJsVeUH_O7t-13" value="redirect" style="text;html=1;strokeColor=none;fillColor=none;align=center;verticalAlign=middle;whiteSpace=wrap;rounded=0;" parent="1" vertex="1">
          <mxGeometry x="580" y="240" width="40" height="20" as="geometry"/>
        </mxCell>
        <mxCell id="NXjKKMXUYwiKTXubAeDR-6" style="edgeStyle=orthogonalEdgeStyle;rounded=0;orthogonalLoop=1;jettySize=auto;html=1;exitX=0.5;exitY=1;exitDx=0;exitDy=0;entryX=0.5;entryY=0;entryDx=0;entryDy=0;" edge="1" parent="1" source="3ejiPTtICGJsVeUH_O7t-15" target="NXjKKMXUYwiKTXubAeDR-1">
          <mxGeometry relative="1" as="geometry"/>
        </mxCell>
        <mxCell id="3ejiPTtICGJsVeUH_O7t-15" value="SingleJobLanucher" style="rounded=1;whiteSpace=wrap;html=1;absoluteArcSize=1;arcSize=14;strokeWidth=2;" parent="1" vertex="1">
          <mxGeometry x="80" y="390" width="170" height="40" as="geometry"/>
        </mxCell>
        <mxCell id="NXjKKMXUYwiKTXubAeDR-8" style="edgeStyle=orthogonalEdgeStyle;rounded=0;orthogonalLoop=1;jettySize=auto;html=1;exitX=0.5;exitY=1;exitDx=0;exitDy=0;entryX=0.5;entryY=0;entryDx=0;entryDy=0;" edge="1" parent="1" source="3ejiPTtICGJsVeUH_O7t-16" target="NXjKKMXUYwiKTXubAeDR-2">
          <mxGeometry relative="1" as="geometry"/>
        </mxCell>
        <mxCell id="3ejiPTtICGJsVeUH_O7t-16" value="PartitionJobLanucher" style="rounded=1;whiteSpace=wrap;html=1;absoluteArcSize=1;arcSize=14;strokeWidth=2;" parent="1" vertex="1">
          <mxGeometry x="415" y="390" width="170" height="40" as="geometry"/>
        </mxCell>
        <mxCell id="NXjKKMXUYwiKTXubAeDR-9" style="edgeStyle=orthogonalEdgeStyle;rounded=0;orthogonalLoop=1;jettySize=auto;html=1;exitX=0.5;exitY=1;exitDx=0;exitDy=0;entryX=0.5;entryY=0;entryDx=0;entryDy=0;" edge="1" parent="1" source="NXjKKMXUYwiKTXubAeDR-1" target="NXjKKMXUYwiKTXubAeDR-3">
          <mxGeometry relative="1" as="geometry"/>
        </mxCell>
        <mxCell id="NXjKKMXUYwiKTXubAeDR-1" value="SingleItemReader" style="rounded=1;whiteSpace=wrap;html=1;absoluteArcSize=1;arcSize=14;strokeWidth=2;" vertex="1" parent="1">
          <mxGeometry x="80" y="480" width="170" height="40" as="geometry"/>
        </mxCell>
        <mxCell id="NXjKKMXUYwiKTXubAeDR-11" style="edgeStyle=orthogonalEdgeStyle;rounded=0;orthogonalLoop=1;jettySize=auto;html=1;exitX=0.5;exitY=1;exitDx=0;exitDy=0;entryX=0.5;entryY=0;entryDx=0;entryDy=0;" edge="1" parent="1" source="NXjKKMXUYwiKTXubAeDR-2" target="NXjKKMXUYwiKTXubAeDR-3">
          <mxGeometry relative="1" as="geometry"/>
        </mxCell>
        <mxCell id="NXjKKMXUYwiKTXubAeDR-2" value="PartitionItemReader" style="rounded=1;whiteSpace=wrap;html=1;absoluteArcSize=1;arcSize=14;strokeWidth=2;" vertex="1" parent="1">
          <mxGeometry x="415" y="480" width="170" height="40" as="geometry"/>
        </mxCell>
        <mxCell id="NXjKKMXUYwiKTXubAeDR-12" style="edgeStyle=orthogonalEdgeStyle;rounded=0;orthogonalLoop=1;jettySize=auto;html=1;exitX=0.5;exitY=1;exitDx=0;exitDy=0;entryX=0.5;entryY=0;entryDx=0;entryDy=0;" edge="1" parent="1" source="NXjKKMXUYwiKTXubAeDR-3" target="NXjKKMXUYwiKTXubAeDR-4">
          <mxGeometry relative="1" as="geometry"/>
        </mxCell>
        <mxCell id="NXjKKMXUYwiKTXubAeDR-3" value="ItemProcessor" style="rounded=1;whiteSpace=wrap;html=1;absoluteArcSize=1;arcSize=14;strokeWidth=2;" vertex="1" parent="1">
          <mxGeometry x="250" y="580" width="170" height="40" as="geometry"/>
        </mxCell>
        <mxCell id="NXjKKMXUYwiKTXubAeDR-4" value="ItemWriter" style="rounded=1;whiteSpace=wrap;html=1;absoluteArcSize=1;arcSize=14;strokeWidth=2;" vertex="1" parent="1">
          <mxGeometry x="250" y="660" width="170" height="40" as="geometry"/>
        </mxCell>
      </root>
    </mxGraphModel>
  </diagram>
</mxfile>
